<svg width="99" height="99" viewBox="0 0 99 99" fill="none" xmlns="http://www.w3.org/2000/svg">
<circle cx="50" cy="49" r="10.5" fill="#030000" stroke="black"/>
<mask id="path-2-inside-1" fill="white">
<path fill-rule="evenodd" clip-rule="evenodd" d="M39.0448 50H0C0.268255 77.1078 22.3263 99 49.4975 99C76.6688 99 98.7268 77.1078 98.9951 50H60.9552C60.4499 55.6065 55.738 60 50 60C44.262 60 39.5501 55.6065 39.0448 50Z"/>
</mask>
<path fill-rule="evenodd" clip-rule="evenodd" d="M39.0448 50H0C0.268255 77.1078 22.3263 99 49.4975 99C76.6688 99 98.7268 77.1078 98.9951 50H60.9552C60.4499 55.6065 55.738 60 50 60C44.262 60 39.5501 55.6065 39.0448 50Z" fill="url(#paint0_linear)"/>
<path d="M39.0448 50L40.0408 49.9102L39.9588 49H39.0448V50ZM0 50V49H-1.00994L-0.999951 50.0099L0 50ZM98.9951 50L99.995 50.0099L100.005 49H98.9951V50ZM60.9552 50V49H60.0412L59.9592 49.9102L60.9552 50ZM39.0448 49H0V51H39.0448V49ZM-0.999951 50.0099C-0.726275 77.6656 21.7773 100 49.4975 100V98C22.8753 98 1.26278 76.5501 0.999951 49.9901L-0.999951 50.0099ZM49.4975 100C77.2177 100 99.7213 77.6656 99.995 50.0099L97.9951 49.9901C97.7323 76.5501 76.1198 98 49.4975 98V100ZM98.9951 49H60.9552V51H98.9951V49ZM59.9592 49.9102C59.5 55.006 55.2159 59 50 59V61C56.2602 61 61.3999 56.207 61.9511 50.0898L59.9592 49.9102ZM50 59C44.7841 59 40.5 55.006 40.0408 49.9102L38.0489 50.0898C38.6001 56.207 43.7398 61 50 61V59Z" fill="black" mask="url(#path-2-inside-1)"/>
<mask id="path-4-inside-2" fill="white">
<path fill-rule="evenodd" clip-rule="evenodd" d="M61 49H98.9975C98.7292 21.8922 76.6712 0 49.5 0C22.3287 0 0.270696 21.8922 0.00244141 49H39C39 42.9249 43.9249 38 50 38C56.0751 38 61 42.9249 61 49Z"/>
</mask>
<path fill-rule="evenodd" clip-rule="evenodd" d="M61 49H98.9975C98.7292 21.8922 76.6712 0 49.5 0C22.3287 0 0.270696 21.8922 0.00244141 49H39C39 42.9249 43.9249 38 50 38C56.0751 38 61 42.9249 61 49Z" fill="url(#paint1_linear)"/>
<path d="M98.9975 49V50H100.007L99.9975 48.9901L98.9975 49ZM61 49H60V50H61V49ZM0.00244141 49L-0.99751 48.9901L-1.0075 50H0.00244141V49ZM39 49V50H40V49H39ZM98.9975 48H61V50H98.9975V48ZM49.5 1C76.1222 1 97.7347 22.4499 97.9975 49.0099L99.9975 48.9901C99.7238 21.3344 77.2202 -1 49.5 -1V1ZM1.00239 49.0099C1.26523 22.4499 22.8777 1 49.5 1V-1C21.7798 -1 -0.723834 21.3344 -0.99751 48.9901L1.00239 49.0099ZM39 48H0.00244141V50H39V48ZM40 49C40 43.4772 44.4772 39 50 39V37C43.3726 37 38 42.3726 38 49H40ZM50 39C55.5228 39 60 43.4772 60 49H62C62 42.3726 56.6274 37 50 37V39Z" fill="black" mask="url(#path-4-inside-2)"/>
<path fill-rule="evenodd" clip-rule="evenodd" d="M60.9552 50C60.9849 49.6706 61 49.3371 61 49H99V50H60.9552Z" fill="black"/>
<path fill-rule="evenodd" clip-rule="evenodd" d="M39 49H0V50H39.0448C39.0152 49.6706 39 49.3371 39 49Z" fill="black"/>
<defs>
<linearGradient id="paint0_linear" x1="42" y1="74" x2="-9.05043e-06" y2="54" gradientUnits="userSpaceOnUse">
<stop stop-color="white"/>
<stop offset="1" stop-color="#59E4DC" stop-opacity="0"/>
</linearGradient>
<linearGradient id="paint1_linear" x1="49.4999" y1="0" x2="79.5" y2="29" gradientUnits="userSpaceOnUse">
<stop offset="0.157309" stop-color="#58D2ED"/>
<stop offset="1" stop-color="#ED58D5" stop-opacity="0.39"/>
</linearGradient>
</defs>
</svg>
